# xmcd
#
# Track frame offsets:
#	150
#	13535
#	29254
#	46541
#	63237
#	76899
#	91360
#	105339
#	120557
#	138193
#	152935
#	168766
#	184430
#	202936
#	219717
#	235160
#
# Disc length: 3382 seconds
#
# Revision: 0
# Processed by: cddbd v1.5.2PL0 Copyright (c) Steve Scherf et al.
# Submitted via: dBpowerAMP V4.0
#
DISCID=c30d3410
DTITLE=Thompson Squre - Just Feels Good
DYEAR=2013
DGENRE=Country
TTITLE0=Everything I Shouldn't Be Thinking About
TTITLE1=Here We Go Again
TTITLE2=You Don't Get Lucky
TTITLE3=That's So Me And You
TTITLE4=I Can't Outrun You
TTITLE5=Testing The Water
TTITLE6=For The Life Of Me
TTITLE7=If I Didn't Have You
TTITLE8=Here's To Being Here
TTITLE9=Just Feels Good
TTITLE10=Maybe It's You
TTITLE11=Run
TTITLE12=Home Is You
TTITLE13=Smile On My Mouth
TTITLE14=That's Why We Roll
TTITLE15=What Am I Gonna Do(Daddy's Song)
EXTD=
EXTT0=
EXTT1=
EXTT2=
EXTT3=
EXTT4=
EXTT5=
EXTT6=
EXTT7=
EXTT8=
EXTT9=
EXTT10=
EXTT11=
EXTT12=
EXTT13=
EXTT14=
EXTT15=
PLAYORDER=
